Coordinates
version=1
nRows=11
nColumns=26
inDegrees=yes

Units are S.I. units (second, meters, Newtons, ...)
If the header above contains a line with 'inDegrees', this indicates whether rotational values are in degrees (yes) or radians (no).

endheader
time	pelvis_tilt	pelvis_list	pelvis_rotation	pelvis_tx	pelvis_ty	pelvis_tz	hip_flexion_r	hip_adduction_r	hip_rotation_r	knee_angle_r	knee_angle_r_beta	ankle_angle_r	subtalar_angle_r	mtp_angle_r	hip_flexion_l	hip_adduction_l	hip_rotation_l	knee_angle_l	knee_angle_l_beta	ankle_angle_l	subtalar_angle_l	mtp_angle_l	lumbar_extension	lumbar_bending	lumbar_rotation
      0.72000000	      3.18761802	     11.10397457	      7.61351397	      1.51116056	      0.87144356	     -0.20177468	     -8.78519259	     -8.91019153	     -7.38149135	     84.65685504	      1.47754085	    -32.85437461	    -18.87737781	      0.00000000	     20.88990936	     18.99729370	      5.54732942	     46.91611128	      0.81884061	     16.16553952	     -8.11759108	      0.00000000	    -25.69729748	    -10.39861267	     -3.58483966
      0.72500000	      2.47718507	     11.07065012	      8.30496620	      1.52343417	      0.86795185	     -0.20152714	     -6.47495715	     -9.10773847	     -7.52628128	     87.04289993	      1.51918519	    -32.00210388	    -18.76129402	      0.00000000	     21.02875002	     19.14176946	      6.12658030	     47.72936351	      0.83303454	     17.21705249	     -7.74193773	      0.00000000	    -25.13974568	    -10.44735570	     -4.86376415
      0.73000000	      1.74974015	     11.10482030	      8.59337679	      1.53568305	      0.86454894	     -0.20082967	     -3.92840621	     -9.37559459	     -7.17823790	     89.48827872	      1.56186511	    -31.18107994	    -18.64017991	      0.00000000	     21.17312028	     19.19188328	      6.23244324	     48.31593242	      0.84327210	     18.33592626	     -7.48445753	      0.00000000	    -24.52906158	    -10.71097237	     -5.91684622
      0.73500000	      1.26102626	     11.04086065	      8.79627214	      1.54796213	      0.86143054	     -0.19998219	     -1.63463069	     -9.53708491	     -6.82307892	     91.72438942	      1.60089260	    -30.22992401	    -18.44471298	      0.00000000	     21.16638943	     18.99776029	      6.19059260	     49.11602181	      0.85723630	     19.67396445	     -6.24622357	      0.00000000	    -24.14053919	    -10.80507186	     -6.77269682
      0.74000000	      0.96455061	     11.06367511	      8.73975287	      1.56040575	      0.85916008	     -0.19868362	      0.49949254	     -9.71476678	     -6.26197245	     93.69635809	      1.63530995	    -29.66048932	    -18.31777206	      0.00000000	     20.78764118	     18.86197029	      6.07629372	     49.52629750	      0.86439696	     20.47232456	     -6.23521668	      0.00000000	    -23.98130530	    -11.02601177	     -7.47943751
      0.74500000	      0.80231516	     11.00267904	      8.47566872	      1.57266376	      0.85732353	     -0.19708867	      2.63569457	     -9.71834876	     -5.49467432	     95.58359572	      1.66824846	    -28.94543367	    -18.06981213	      0.00000000	     20.28257737	     18.51901507	      5.80044773	     49.93937576	      0.87160653	     21.39001434	     -5.75945768	      0.00000000	    -23.84174141	    -11.17993329	     -7.97328716
      0.75000000	      1.01823407	     10.99639376	      8.11443925	      1.58557299	      0.85642671	     -0.19549520	      4.21581810	     -9.66778582	     -4.73226445	     97.08453020	      1.69444470	    -28.54173962	    -17.90797609	      0.00000000	     19.17192723	     18.15916431	      5.51092331	     50.11170266	      0.87461421	     22.18592575	     -5.62108366	      0.00000000	    -24.09410832	    -11.33242673	     -8.51686029
      0.75500000	      1.23882928	     10.97994245	      7.64116134	      1.59899289	      0.85574344	     -0.19388648	      5.71342713	     -9.76857574	     -4.03971737	     98.38453681	      1.71713410	    -27.83983185	    -17.43855000	      0.00000000	     18.06061557	     17.68591814	      5.06355483	     50.34746018	      0.87872895	     23.31707590	     -4.16445349	      0.00000000	    -24.22330541	    -11.51064376	     -9.04335916
      0.76000000	      1.52864560	     10.93380539	      7.26606934	      1.61174047	      0.85579553	     -0.19248659	      7.17849244	     -9.70248089	     -3.37786853	     99.45136888	      1.73575383	    -27.62204031	    -17.39786261	      0.00000000	     16.66342877	     17.38216661	      5.09016674	     50.13446576	      0.87501150	     23.92408847	     -4.09544270	      0.00000000	    -24.53098064	    -11.61294456	     -9.49087073
      0.76500000	      1.77323210	     10.81349120	      6.77563398	      1.62458834	      0.85604458	     -0.19106594	      8.68865425	     -9.55849257	     -2.65002513	    100.53260472	      1.75462496	    -26.75929325	    -16.93704248	      0.00000000	     15.30026247	     16.97822706	      5.04102102	     49.85160774	      0.87007469	     24.58747103	     -3.76786300	      0.00000000	    -24.70893252	    -11.61368725	     -9.85114165
      0.77000000	      2.00193755	     10.54879179	      6.33734263	      1.63739862	      0.85678290	     -0.18969093	     10.23362304	     -9.14248940	     -1.92718161	    101.30951307	      1.76818457	    -26.57986192	    -16.83004297	      0.00000000	     13.84716844	     16.46974040	      5.14243329	     49.38762615	      0.86197669	     25.01366835	     -3.70823478	      0.00000000	    -24.86453324	    -11.49491007	    -10.19907532
